<?xml version="1.0" encoding="UTF-8"?>
<svg width="38px" height="38px" viewBox="0 0 38 38" version="1.1" xmlns="http://www.w3.org/2000/svg" xmlns:xlink="http://www.w3.org/1999/xlink">
    <title>2b6af8d3-38cd-4bf6-a05a-7f3e7eedfd75</title>
    <defs>
        <linearGradient x1="0%" y1="0%" x2="100%" y2="0%" id="linearGradient-1">
            <stop stop-color="#41E296" offset="0%"></stop>
            <stop stop-color="#00C4EE" offset="100%"></stop>
        </linearGradient>
    </defs>
    <g id="Page-1" stroke="none" stroke-width="1" fill="none" fill-rule="evenodd">
        <g id="default" transform="translate(-64.000000, -230.000000)" fill="url(#linearGradient-1)" fill-rule="nonzero">
            <g id="2b6af8d3-38cd-4bf6-a05a-7f3e7eedfd75" transform="translate(64.000000, 230.000000)">
                <path d="M34.3941517,19.2504578 L22.602304,19.2504578 C21.7130325,19.2494568 20.8598949,19.6022744 20.2310846,20.2310846 C19.6022744,20.8598949 19.2494568,21.7130325 19.2504578,22.602304 L19.2504578,34.3941517 C19.2494568,35.2834232 19.6022744,36.1365608 20.2310846,36.7653711 C20.8598949,37.3941813 21.7130325,37.7469989 22.602304,37.7459979 L34.3941517,37.7459979 C35.2834232,37.7469989 36.1365608,37.3941813 36.7653711,36.7653711 C37.3941813,36.1365608 37.7469989,35.2834232 37.7459979,34.3941517 L37.7459979,22.602304 C37.7469989,21.7130325 37.3941813,20.8598949 36.7653711,20.2310846 C36.1365608,19.6022744 35.2834232,19.2494568 34.3941517,19.2504578 L34.3941517,19.2504578 Z M36.2361561,34.3941517 C36.2340796,35.4106013 35.4106013,36.2340796 34.3941517,36.2361561 L22.602304,36.2361561 C21.5858544,36.2340796 20.7623761,35.4106013 20.7602996,34.3941517 L20.7602996,22.602304 C20.7623761,21.5858544 21.5858544,20.7623761 22.602304,20.7602996 L34.3941517,20.7602996 C35.4106013,20.7623761 36.2340796,21.5858544 36.2361561,22.602304 L36.2361561,34.3941517 Z M34.3941517,2.12416714e-06 L22.602304,2.12416714e-06 C21.7130325,-0.000998869861 20.8598949,0.351818689 20.2310846,0.980628965 C19.6022744,1.60943924 19.2494568,2.46257685 19.2504578,3.3518483 L19.2504578,15.1436961 C19.2494568,16.0329675 19.6022744,16.8861051 20.2310846,17.5149154 C20.8598949,18.1437257 21.7130325,18.4965432 22.602304,18.4955422 L34.3941517,18.4955422 C35.2834232,18.4965432 36.1365608,18.1437257 36.7653711,17.5149154 C37.3941813,16.8861051 37.7469989,16.0329675 37.7459979,15.1436961 L37.7459979,3.3518483 C37.7469989,2.46257685 37.3941813,1.60943924 36.7653711,0.980628965 C36.1365608,0.351818689 35.2834232,-0.000998869861 34.3941517,2.12416714e-06 L34.3941517,2.12416714e-06 Z M36.2361561,15.1436961 C36.2340796,16.1601456 35.4106013,16.9836239 34.3941517,16.9857004 L22.602304,16.9857004 C21.5858544,16.9836239 20.7623761,16.1601456 20.7602996,15.1436961 L20.7602996,3.3518483 C20.7623761,2.33539873 21.5858544,1.51192043 22.602304,1.50984392 L34.3941517,1.50984392 C35.4106013,1.51192043 36.2340796,2.33539873 36.2361561,3.3518483 L36.2361561,15.1436961 Z M15.1436961,19.2504578 L3.3518483,19.2504578 C2.46257685,19.2494568 1.60943924,19.6022744 0.980628965,20.2310846 C0.351818689,20.8598949 -0.000998869861,21.7130325 2.12416714e-06,22.602304 L2.12416714e-06,34.3941517 C-0.000998869861,35.2834232 0.351818689,36.1365608 0.980628965,36.7653711 C1.60943924,37.3941813 2.46257685,37.7469989 3.3518483,37.7459979 L15.1436961,37.7459979 C16.0329675,37.7469989 16.8861051,37.3941813 17.5149154,36.7653711 C18.1437257,36.1365608 18.4965432,35.2834232 18.4955422,34.3941517 L18.4955422,22.602304 C18.4965432,21.7130325 18.1437257,20.8598949 17.5149154,20.2310846 C16.8861051,19.6022744 16.0329675,19.2494568 15.1436961,19.2504578 Z M16.9857004,34.3941517 C16.9836239,35.4106013 16.1601456,36.2340796 15.1436961,36.2361561 L3.3518483,36.2361561 C2.33539873,36.2340796 1.51192043,35.4106013 1.50984392,34.3941517 L1.50984392,22.602304 C1.51192043,21.5858544 2.33539873,20.7623761 3.3518483,20.7602996 L15.1436961,20.7602996 C16.1601456,20.7623761 16.9836239,21.5858544 16.9857004,22.602304 L16.9857004,34.3941517 Z" id="Shape"></path>
            </g>
        </g>
    </g>
</svg>